<svg width="20" height="20" viewBox="0 0 20 20" fill="none" xmlns="http://www.w3.org/2000/svg">
<rect width="20" height="20" rx="5" fill="black"/>
<path d="M16 6.17647C15.5583 6.38235 15.0822 6.51765 14.5889 6.58235C15.0937 6.27059 15.4837 5.77647 15.6673 5.18235C15.1912 5.47647 14.6635 5.68235 14.1071 5.8C13.6539 5.29412 13.0172 5 12.2945 5C10.9465 5 9.84512 6.12941 9.84512 7.52353C9.84512 7.72353 9.86807 7.91765 9.90822 8.1C7.86616 7.99412 6.0478 6.98824 4.83748 5.46471C4.62524 5.83529 4.50478 6.27059 4.50478 6.72941C4.50478 7.60588 4.93499 8.38235 5.60038 8.82353C5.19312 8.82353 4.81453 8.70588 4.48184 8.52941V8.54706C4.48184 9.77059 5.33078 10.7941 6.45507 11.0235C6.09417 11.1253 5.71513 11.1394 5.34799 11.0647C5.50379 11.5662 5.80891 12.0049 6.22047 12.3194C6.63202 12.6338 7.12932 12.8081 7.64245 12.8176C6.77266 13.5238 5.69446 13.9055 4.58509 13.9C4.39006 13.9 4.19503 13.8882 4 13.8647C5.08987 14.5824 6.38623 15 7.77438 15C12.2945 15 14.7782 11.1529 14.7782 7.81765C14.7782 7.70588 14.7782 7.6 14.7725 7.48824C15.2543 7.13529 15.6673 6.68824 16 6.17647Z" fill="white"/>
</svg>
